<svg width="451" height="475" viewBox="0 0 451 475" fill="none" xmlns="http://www.w3.org/2000/svg">
<path d="M84 102.743L354 0L321.5 282.5L181.453 288L154.506 240.949L101.177 219.987L84 102.743Z" fill="#F58634"/>
<path d="M102 219.987L354 0L182.014 288L155.156 240.949L102 219.987Z" fill="#F16436"/>
<path d="M75.14 306.34C75.14 311.193 73.97 315.743 71.63 319.99C69.3767 324.237 65.78 327.66 60.84 330.26C55.9867 332.86 49.8333 334.16 42.38 334.16H27.17V369H8.97V278.26H42.38C49.4 278.26 55.38 279.473 60.32 281.9C65.26 284.327 68.9433 287.663 71.37 291.91C73.8833 296.157 75.14 300.967 75.14 306.34ZM41.6 319.47C46.6267 319.47 50.3533 318.343 52.78 316.09C55.2067 313.75 56.42 310.5 56.42 306.34C56.42 297.5 51.48 293.08 41.6 293.08H27.17V319.47H41.6ZM154.102 351.71H117.962L111.982 369H92.8718L125.502 278.13H146.692L179.322 369H160.082L154.102 351.71ZM149.162 337.15L136.032 299.19L122.902 337.15H149.162ZM270.688 306.34C270.688 311.193 269.518 315.743 267.178 319.99C264.925 324.237 261.328 327.66 256.388 330.26C251.535 332.86 245.382 334.16 237.928 334.16H222.718V369H204.518V278.26H237.928C244.948 278.26 250.928 279.473 255.868 281.9C260.808 284.327 264.492 287.663 266.918 291.91C269.432 296.157 270.688 300.967 270.688 306.34ZM237.148 319.47C242.175 319.47 245.902 318.343 248.328 316.09C250.755 313.75 251.968 310.5 251.968 306.34C251.968 297.5 247.028 293.08 237.148 293.08H222.718V319.47H237.148ZM312.21 292.95V315.7H342.76V330.13H312.21V354.18H346.66V369H294.01V278.13H346.66V292.95H312.21ZM420.4 369L400.38 333.64H391.8V369H373.6V278.26H407.66C414.68 278.26 420.66 279.517 425.6 282.03C430.54 284.457 434.223 287.793 436.65 292.04C439.163 296.2 440.42 300.88 440.42 306.08C440.42 312.06 438.686 317.477 435.22 322.33C431.753 327.097 426.596 330.39 419.75 332.21L441.46 369H420.4ZM391.8 319.99H407.01C411.95 319.99 415.633 318.82 418.06 316.48C420.486 314.053 421.7 310.717 421.7 306.47C421.7 302.31 420.486 299.103 418.06 296.85C415.633 294.51 411.95 293.34 407.01 293.34H391.8V319.99ZM22.99 452.79H48.29V465H7.59V388.22H22.99V452.79ZM105.158 450.37H74.5783L69.5183 465H53.3483L80.9583 388.11H98.8883L126.498 465H110.218L105.158 450.37ZM100.978 438.05L89.8683 405.93L78.7583 438.05H100.978ZM151.999 388.22V435.74C151.999 440.947 153.355 444.943 156.069 447.73C158.782 450.443 162.595 451.8 167.509 451.8C172.495 451.8 176.345 450.443 179.059 447.73C181.772 444.943 183.129 440.947 183.129 435.74V388.22H198.639V435.63C198.639 442.157 197.209 447.693 194.349 452.24C191.562 456.713 187.785 460.087 183.019 462.36C178.325 464.633 173.082 465.77 167.289 465.77C161.569 465.77 156.362 464.633 151.669 462.36C147.049 460.087 143.382 456.713 140.669 452.24C137.955 447.693 136.599 442.157 136.599 435.63V388.22H151.999ZM279.188 465H263.788L228.918 412.31V465H213.518V388.11H228.918L263.788 440.91V388.11H279.188V465ZM290.666 426.5C290.666 418.947 292.353 412.2 295.726 406.26C299.173 400.247 303.83 395.59 309.696 392.29C315.636 388.917 322.273 387.23 329.606 387.23C338.186 387.23 345.703 389.43 352.156 393.83C358.61 398.23 363.12 404.317 365.686 412.09H347.976C346.216 408.423 343.723 405.673 340.496 403.84C337.343 402.007 333.676 401.09 329.496 401.09C325.023 401.09 321.026 402.153 317.506 404.28C314.06 406.333 311.346 409.267 309.366 413.08C307.46 416.893 306.506 421.367 306.506 426.5C306.506 431.56 307.46 436.033 309.366 439.92C311.346 443.733 314.06 446.703 317.506 448.83C321.026 450.883 325.023 451.91 329.496 451.91C333.676 451.91 337.343 450.993 340.496 449.16C343.723 447.253 346.216 444.467 347.976 440.8H365.686C363.12 448.647 358.61 454.77 352.156 459.17C345.776 463.497 338.26 465.66 329.606 465.66C322.273 465.66 315.636 464.01 309.696 460.71C303.83 457.337 299.173 452.68 295.726 446.74C292.353 440.8 290.666 434.053 290.666 426.5ZM442.53 388.22V465H427.13V432.33H394.24V465H378.84V388.22H394.24V419.79H427.13V388.22H442.53Z" fill="black"/>
</svg>
